<?xml version="1.0" encoding="utf-8"?>
<!-- Generator: Adobe Illustrator 27.0.0, SVG Export Plug-In . SVG Version: 6.00 Build 0)  -->
<svg version="1.1" id="Layer_1" xmlns="http://www.w3.org/2000/svg" xmlns:xlink="http://www.w3.org/1999/xlink" x="0px" y="0px"
	 viewBox="0 0 64 64.1999969" style="enable-background:new 0 0 64 64.1999969;" xml:space="preserve">
<path d="M21.8999023,62.2000008c1.8691406,0,3.3901367-1.5161133,3.3901367-3.3798828V28.1614265
	c3.8881836-1.9423828,6.4697266-7.034668,6.4697266-12.8613291c0-7.5595703-4.4233398-13.7099609-9.8598633-13.7099609
	s-9.8598633,6.1503906-9.8598633,13.7099609c0,5.8496103,2.6054688,10.961915,6.4799805,12.8671885v30.652832
	C18.5200195,60.6838875,20.0361328,62.2000008,21.8999023,62.2000008z M14.0400391,15.3000975
	c0-6.4570312,3.5258789-11.7099609,7.8598633-11.7099609s7.8598633,5.2529297,7.8598633,11.7099609
	c0,5.1669931-2.3378906,9.7817392-5.6850586,11.2216806c-0.0175781,0.0073242-0.0839844,0.03125-0.1010742,0.0395508
	c-0.4082031,0.1362305-0.6835938,0.5180664-0.6835938,0.9487305V58.820118c0,0.7607422-0.6235352,1.3798828-1.3901367,1.3798828
	c-0.7607422,0-1.3798828-0.6191406-1.3798828-1.3798828V27.5100594c0-0.4306641-0.2753906-0.8125-0.6835938-0.9487305
	c-0.0029297-0.0009766-0.1074219-0.0385742-0.1103516-0.0390625C16.378418,25.0779305,14.0400391,20.4631844,14.0400391,15.3000975z
	"/>
<path d="M42,61.8801765c1.8525391,0,3.3598633-1.5073242,3.3598633-3.3603516V30.6995125
	c3.293457-0.0429688,5.9599609-2.7358398,5.9599609-6.0395508V4.479785c0-0.7294919-0.3178711-1.4179685-0.8725586-1.8891599
	c-0.5556641-0.4726562-1.2900391-0.6733398-2.0200195-0.5576172c-1.1918945,0.1962891-2.0571289,1.2587891-2.0571289,2.5268552
	v17.3701172h-1.8901367V4.5598631c0-1.2446287-0.8837891-2.3310544-2.0610352-2.5273435
	c-0.7329102-0.1191406-1.4716797,0.0864258-2.0288086,0.5610352c-0.5532227,0.4707031-0.8701172,1.1582031-0.8701172,1.8862302
	v17.4501953h-1.8901367V4.5598631c0-1.2680662-0.8652344-2.3305662-2.059082-2.5268552
	c-0.7255859-0.1201172-1.4619141,0.0849609-2.0180664,0.5576172c-0.5546875,0.4711914-0.8725586,1.159668-0.8725586,1.8891599
	v20.1704102c0,3.3061523,2.6650391,6.0009766,5.9599609,6.0493164V58.519825
	C38.6401367,60.3728523,40.1474609,61.8801765,42,61.8801765z M34.6801758,24.6501961V4.479785
	c0-0.1938477,0.1049805-0.3125,0.1679688-0.3657227c0.0541992-0.0458984,0.1606445-0.1147459,0.3134766-0.1147459
	c0.0273438,0,0.0561523,0.0024412,0.0859375,0.007324c0.2392578,0.0390625,0.3823242,0.3120117,0.3823242,0.5532227v17.7900391
	c0,0.8710938,0.7089844,1.5800781,1.5800781,1.5800781h2.7402344c0.8657227,0,1.5698242-0.7089844,1.5698242-1.5800781V4.479785
	c0-0.1928711,0.1044922-0.3105469,0.1665039-0.3632812c0.0649414-0.0556641,0.199707-0.1455076,0.4086914-0.1103516
	c0.2124023,0.0356445,0.3847656,0.2836914,0.3847656,0.5537109v17.7900391c0,0.8710938,0.7041016,1.5800781,1.5698242,1.5800781
	h2.7402344c0.8710938,0,1.5800781-0.7089844,1.5800781-1.5800781V4.5598631c0-0.2412109,0.1430664-0.5141602,0.3803711-0.5532227
	c0.2036133-0.031738,0.3383789,0.0537109,0.4013672,0.1074219c0.0629883,0.0532227,0.1679688,0.171875,0.1679688,0.3657227
	v20.1801758c0,2.2275391-1.8120117,4.0400391-4.0395508,4.0400391h-0.9204102c-0.5522461,0-1,0.4477539-1,1V58.519825
	c0,0.7626953-0.597168,1.3603516-1.3598633,1.3603516s-1.3598633-0.5976562-1.3598633-1.3603516V29.7000008
	c0-0.5522461-0.4477539-1-1-1h-0.9101562C36.4970703,28.7000008,34.6801758,26.8831062,34.6801758,24.6501961z"/>
<path d="M20.574707,23.9675789c0.3842773-0.3959961,0.375-1.0292969-0.0214844-1.4140625
	c-4.9130859-4.7685547-2.1474609-12.2426767-2.1191406-12.317872c0.1962891-0.515625-0.0620117-1.0932617-0.5771484-1.2900391
	c-0.5146484-0.1992188-1.0922852,0.0600586-1.2905273,0.574707c-0.1362305,0.3554688-3.2758789,8.770997,2.5942383,14.468751
	c0.1938477,0.1884766,0.4453125,0.2822266,0.6962891,0.2822266C20.1176758,24.2712898,20.378418,24.1697273,20.574707,23.9675789z"
	/>
</svg>
